HIERARCHY
ROOT Hips
{
 OFFSET 0.000000 0.000000 0.000000
 CHANNELS 6 Xposition Yposition Zposition Yrotation Xrotation Zrotation
 JOINT Chest
 {
  OFFSET 0.000000 9.585900 0.002600
  CHANNELS 3 Yrotation Xrotation Zrotation
  JOINT Chest2
  {
   OFFSET 0.000000 9.601200 -0.005300
   CHANNELS 3 Yrotation Xrotation Zrotation
   JOINT Chest3
   {
    OFFSET 0.000000 9.561800 0.000000
    CHANNELS 3 Yrotation Xrotation Zrotation
    JOINT Chest4
    {
     OFFSET 0.000000 9.552100 0.000000
     CHANNELS 3 Yrotation Xrotation Zrotation
     JOINT Neck
     {
      OFFSET 0.000000 14.453000 0.000000
      CHANNELS 3 Yrotation Xrotation Zrotation
      JOINT Head
      {
       OFFSET 0.000000 8.936500 -0.011300
       CHANNELS 3 Yrotation Xrotation Zrotation
       End Site
       {
        OFFSET 0.000000 17.073600 -0.006000
       }
      }
     }
     JOINT RightCollar
     {
      OFFSET -2.921100 9.558500 0.000000
      CHANNELS 3 Yrotation Xrotation Zrotation
      JOINT RightShoulder
      {
       OFFSET -13.519700 0.000000 0.000000
       CHANNELS 3 Yrotation Xrotation Zrotation
       JOINT RightElbow
       {
        OFFSET 0.000000 -29.696600 0.000000
        CHANNELS 3 Yrotation Xrotation Zrotation
        JOINT RightWrist
        {
         OFFSET 0.000000 -24.004700 0.000000
         CHANNELS 3 Yrotation Xrotation Zrotation
         End Site
         {
          OFFSET 0.000000 -17.728500 0.000000
         }
        }
       }
      }
     }
     JOINT LeftCollar
     {
      OFFSET 2.921100 9.558500 0.000000
      CHANNELS 3 Yrotation Xrotation Zrotation
      JOINT LeftShoulder
      {
       OFFSET 13.519700 0.000000 0.000000
       CHANNELS 3 Yrotation Xrotation Zrotation
       JOINT LeftElbow
       {
        OFFSET 0.000000 -29.696600 0.000000
        CHANNELS 3 Yrotation Xrotation Zrotation
        JOINT LeftWrist
        {
         OFFSET 0.000000 -24.004700 0.000000
         CHANNELS 3 Yrotation Xrotation Zrotation
         End Site
         {
          OFFSET 0.000000 -17.728500 0.000000
         }
        }
       }
      }
     }
    }
   }
  }
 }
 JOINT RightHip
 {
  OFFSET -7.771700 -0.012900 -0.001300
  CHANNELS 3 Yrotation Xrotation Zrotation
  JOINT RightKnee
  {
   OFFSET 0.000000 -40.869800 0.001200
   CHANNELS 3 Yrotation Xrotation Zrotation
   JOINT RightAnkle
   {
    OFFSET 0.000000 -39.717900 0.002100
    CHANNELS 3 Yrotation Xrotation Zrotation
    JOINT RightToe
    {
     OFFSET 0.000000 -4.965400 11.033500
     CHANNELS 3 Yrotation Xrotation Zrotation
     End Site
     {
      OFFSET 0.000000 -1.423100 5.872300
     }
    }
   }
  }
 }
 JOINT LeftHip
 {
  OFFSET 7.771700 -0.012900 -0.001300
  CHANNELS 3 Yrotation Xrotation Zrotation
  JOINT LeftKnee
  {
   OFFSET 0.000000 -40.869800 0.001200
   CHANNELS 3 Yrotation Xrotation Zrotation
   JOINT LeftAnkle
   {
    OFFSET 0.000000 -39.717900 0.002100
    CHANNELS 3 Yrotation Xrotation Zrotation
    JOINT LeftToe
    {
     OFFSET 0.000000 -4.965400 11.033500
     CHANNELS 3 Yrotation Xrotation Zrotation
     End Site
     {
      OFFSET 0.000000 -1.423100 5.872300
     }
    }
   }
  }
 }
}
MOTION
Frames: 16
Frame Time: 0.008333
0.000000 85.388000 0.000000 0.000000 -5.767877 0.000000 0.000000 11.653817 0.000000 0.000000 -5.885947 0.000000 0.000000 -0.000000 0.000000 0.000000 -0.000000 0.000000 0.000000 12.528835 0.000000 0.000000 0.711642 0.000000 0.000000 -0.000000 0.000000 0.000000 0.000000 -90.000000 0.000000 -2.309062 0.000000 0.000000 2.309062 0.000000 0.000000 -0.000000 0.000000 0.000000 -0.000000 90.000000 0.000000 -2.309062 0.000000 0.000000 2.309062 0.000000 0.000000 8.520406 0.000000 0.000000 1.905762 0.000000 -0.000000 -4.658285 0.000000 0.000000 -0.000000 0.000000 0.000000 8.520406 0.000000 0.000000 1.905762 0.000000 -0.000000 -4.658285 0.000000 0.000000 -0.000000 0.000000
-206.438272 49.286926 8.436822 174.983841 -33.009846 -3.602838 0.325139 19.222554 3.122186 0.009065 2.353109 0.350305 -0.009571 3.866037 0.582009 0.303950 16.745655 2.571440 10.782108 18.314076 -0.526719 20.183655 -0.955528 -4.513530 -2.834536 -2.348041 -2.686998 -12.320182 -19.997621 -12.657474 -92.887536 -66.011533 128.342544 3.656209 -3.528309 -24.832361 -1.970316 -2.284350 2.501477 -0.801778 -18.634858 11.209769 87.474019 -65.632733 -119.734137 7.491860 -1.116228 11.933375 -2.250749 -51.047466 -3.440107 -139.566260 79.081656 -127.553947 -30.118875 -3.370780 -1.552108 -0.096350 -12.714631 1.133839 -18.466657 -52.749583 21.132885 -73.221281 68.257705 -77.310623 30.601975 9.078440 11.719235 -0.181711 -0.560351 -0.062985
-206.430336 49.277456 8.429452 174.836126 -33.085949 -3.499901 0.375739 19.279665 3.078520 0.001599 2.353522 0.351924 0.010320 3.872061 0.579376 0.346570 16.755525 2.568273 10.868458 18.327408 -0.571210 20.323184 -0.914506 -4.634784 -2.836753 -2.385100 -2.658987 -12.280810 -19.979289 -12.693859 -92.673954 -65.909005 128.191811 3.645896 -3.561150 -24.869915 -1.929194 -2.322969 2.487511 -0.786053 -18.616880 11.292386 87.316486 -65.518888 -119.629760 7.513642 -1.152822 11.990486 -2.162397 -50.967016 -3.401089 -139.438544 78.966611 -127.436376 -30.059640 -3.616792 -1.443412 -0.079289 -12.550550 1.043387 -18.276084 -52.672981 21.104500 -73.251743 68.253939 -77.387546 30.569220 9.004838 11.739876 -0.172679 -0.521779 -0.061427
-206.420980 49.263623 8.424651 174.667216 -33.147664 -3.398924 0.480234 19.326524 3.057585 -0.032575 2.346318 0.350149 0.019212 3.875147 0.579204 0.398040 16.767337 2.568702 10.939416 18.337961 -0.619151 20.437304 -0.866918 -4.753435 -2.830963 -2.395737 -2.655779 -12.272939 -19.985923 -12.692214 -92.401193 -65.797144 127.987406 3.608355 -3.591113 -24.911809 -1.883604 -2.364491 2.466311 -0.745717 -18.595304 11.373336 87.221342 -65.422550 -119.597464 7.518073 -1.182992 12.040047 -2.063712 -50.905512 -3.340157 -139.244898 78.856326 -127.276251 -29.991327 -3.829732 -1.278454 -0.168878 -12.388027 0.933533 -18.074010 -52.584871 21.135034 -73.257879 68.186600 -77.430449 30.443802 8.865670 11.700883 -0.074353 -0.390836 -0.018952
-206.410795 49.247014 8.420850 174.504407 -33.203967 -3.319085 0.514145 19.357564 3.027891 -0.008916 2.352023 0.350170 0.028732 3.877319 0.579061 0.419764 16.761600 2.578730 11.022485 18.371645 -0.688719 20.533068 -0.815286 -4.863989 -2.791863 -2.396879 -2.655651 -12.249857 -19.981278 -12.703906 -92.103405 -65.675960 127.754567 3.566355 -3.619308 -24.953602 -1.826795 -2.357052 2.431726 -0.648398 -18.593959 11.437773 87.192897 -65.338794 -119.642088 7.513677 -1.203073 12.071918 -2.047942 -50.848661 -3.163879 -138.852472 78.721402 -126.973854 -29.946371 -4.073709 -1.076250 -0.141852 -12.182413 0.787436 -17.916296 -52.516052 21.162266 -73.275499 68.156448 -77.476777 30.446188 8.813306 11.705898 -0.072895 -0.357778 -0.008356
-206.406538 49.226821 8.419195 174.349530 -33.240340 -3.228826 0.522606 19.370475 2.975792 0.018670 2.357517 0.351439 0.038360 3.878169 0.578968 0.472934 16.767494 2.581475 11.080547 18.391995 -0.765981 20.601135 -0.767852 -4.945436 -2.773567 -2.433360 -2.617000 -12.206992 -19.951496 -12.738238 -91.819099 -65.562063 127.521248 3.524905 -3.650813 -24.984817 -1.794364 -2.359363 2.411581 -0.531234 -18.581361 11.487252 87.215238 -65.263651 -119.742221 7.502843 -1.218535 12.085498 -1.954999 -50.821555 -3.057193 -138.612243 78.596244 -126.793513 -29.912911 -4.317101 -0.856446 -0.132303 -11.969891 0.633950 -17.762531 -52.480196 21.159141 -73.297975 68.141674 -77.519409 30.454626 8.774733 11.719036 -0.061116 -0.317841 -0.016247
-206.403476 49.205441 8.418250 174.180444 -33.272387 -3.147675 0.564088 19.382527 2.944711 0.024355 2.357352 0.351269 0.047713 3.877870 0.578839 0.548897 16.782504 2.583190 11.094944 18.399060 -0.790835 20.667975 -0.695918 -5.060867 -2.766605 -2.436126 -2.614546 -12.175967 -19.949126 -12.714573 -91.576508 -65.463698 127.308473 3.492016 -3.683525 -25.004947 -1.782936 -2.414407 2.385072 -0.405327 -18.506662 11.535772 87.270903 -65.193952 -119.876672 7.501602 -1.206696 12.064750 -1.847648 -50.807101 -2.927411 -138.487685 78.494594 -126.720282 -29.928266 -4.565539 -0.655380 -0.148122 -11.743381 0.509515 -17.621880 -52.443729 21.185348 -73.336544 68.123063 -77.580239 30.440958 8.683060 11.724817 -0.055879 -0.247105 -0.014697
-206.401403 49.184482 8.416803 174.001631 -33.309227 -3.079918 0.612862 19.397059 2.924995 0.029833 2.356843 0.350990 0.056781 3.877137 0.578484 0.600267 16.784602 2.593880 11.104481 18.428111 -0.881773 20.734737 -0.643800 -5.115502 -2.727072 -2.449021 -2.605604 -12.121253 -19.926473 -12.706539 -91.474185 -65.455475 127.192052 3.410263 -3.722372 -25.003202 -1.764589 -2.422706 2.358238 -0.250500 -18.442977 11.557767 87.349432 -65.127723 -120.032342 7.486253 -1.196014 12.040165 -1.728948 -50.794797 -2.787608 -138.545589 78.436226 -126.817089 -29.935798 -4.791047 -0.463744 -0.164063 -11.530503 0.377374 -17.500283 -52.388260 21.257996 -73.372527 68.084818 -77.647398 30.428896 8.621859 11.728983 -0.042045 -0.210525 -0.010036
-206.402242 49.162559 8.417682 173.833966 -33.329060 -3.026334 0.651070 19.394461 2.906513 0.034820 2.356142 0.350437 0.065038 3.876073 0.577640 0.579821 16.756334 2.591356 11.176944 18.488788 -0.929774 20.784107 -0.577166 -5.190116 -2.608571 -2.428232 -2.602482 -12.027703 -19.918033 -12.640381 -91.374115 -65.525398 127.030647 3.378327 -3.765833 -24.993302 -1.688332 -2.395882 2.328910 -0.093075 -18.361572 11.565438 87.433016 -65.083893 -120.209554 7.463968 -1.229639 12.053499 -1.614843 -50.806501 -2.632125 -138.715959 78.411383 -127.025902 -29.957213 -5.002168 -0.286624 -0.162458 -11.318089 0.250336 -17.404647 -52.341341 21.345148 -73.359366 68.048013 -77.652452 30.406300 8.582051 11.723550 -0.021084 -0.171150 -0.004178
-206.406397 49.141211 8.419286 173.673343 -33.344497 -2.978779 0.684899 19.388119 2.885902 0.039080 2.355015 0.349439 0.072007 3.874236 0.576134 0.609970 16.752653 2.588685 11.193891 18.518634 -0.963021 20.822201 -0.513999 -5.250701 -2.572093 -2.479803 -2.547446 -11.904999 -19.882359 -12.635362 -91.214449 -65.540347 126.838120 3.430009 -3.803026 -24.982820 -1.641504 -2.378977 2.324606 0.028881 -18.278830 11.553777 87.558086 -65.058721 -120.408091 7.522049 -1.292507 12.080385 -1.497637 -50.828891 -2.466937 -138.977584 78.413205 -127.329639 -29.982393 -5.200842 -0.117853 -0.159098 -11.105299 0.127197 -17.329765 -52.298715 21.437382 -73.340688 68.019758 -77.655034 30.382474 8.548813 11.718601 -0.001735 -0.137101 0.000208
-206.413320 49.121759 8.420298 173.514737 -33.367396 -2.933513 0.718825 19.388537 2.862756 0.042628 2.353466 0.348030 0.077786 3.871742 0.573950 0.634604 16.748151 2.582779 11.206605 18.547489 -0.990105 20.850678 -0.454207 -5.299076 -2.530367 -2.491166 -2.512952 -11.812125 -19.884423 -12.606677 -91.121551 -65.573089 126.711245 3.474833 -3.831590 -24.954678 -1.589081 -2.356933 2.327808 0.126768 -18.183247 11.530458 87.640872 -64.963028 -120.494145 7.497340 -1.280800 12.018509 -1.367195 -50.848183 -2.296445 -139.329554 78.438219 -127.724003 -30.005981 -5.392296 0.046242 -0.157315 -10.890083 0.005529 -17.260648 -52.247660 21.526881 -73.345515 67.982662 -77.681148 30.354649 8.509998 11.711938 0.013599 -0.096098 0.002435
-206.420621 49.104780 8.420649 173.354401 -33.402614 -2.898978 0.760616 19.400396 2.848675 0.045425 2.351673 0.346324 0.082388 3.868966 0.571263 0.653751 16.743327 2.574291 11.259470 18.577950 -0.991439 20.829836 -0.398185 -5.345198 -2.492144 -2.502444 -2.471989 -11.720767 -19.894175 -12.576701 -91.069079 -65.638346 126.628550 3.504088 -3.857244 -24.912167 -1.622837 -2.363155 2.343881 0.291465 -18.044270 11.498696 87.711631 -64.913039 -120.589308 7.515255 -1.292651 11.985414 -1.226608 -50.857421 -2.106563 -139.775198 78.491029 -128.205923 -30.032181 -5.574114 0.204788 -0.156133 -10.674654 -0.116235 -17.241032 -52.166044 21.641804 -73.346919 67.954767 -77.710314 30.339240 8.446863 11.669055 0.040793 -0.046457 0.015697
-206.432674 49.087305 8.423997 173.241471 -33.419088 -2.875357 0.761429 19.395943 2.817965 0.047284 2.349829 0.344407 0.085435 3.866155 0.568196 0.665972 16.738578 2.563431 11.315173 18.606968 -0.989121 20.795786 -0.350540 -5.381197 -2.456582 -2.515547 -2.426500 -11.638883 -19.880566 -12.581781 -91.192818 -65.678909 126.725092 3.492501 -3.848236 -24.851256 -1.631430 -2.352952 2.366136 0.407924 -17.966964 11.478483 87.650102 -64.846937 -120.531603 7.531322 -1.301687 11.954775 -1.084921 -50.885174 -1.936928 -140.315608 78.575421 -128.777017 -30.074678 -5.746337 0.356607 -0.144302 -10.456515 -0.235786 -17.241031 -52.118926 21.722436 -73.314925 67.959050 -77.701326 30.314661 8.417905 11.650940 0.060958 -0.016315 0.015153
-206.442684 49.070822 8.429177 173.128619 -33.434906 -2.873414 0.775957 19.390794 2.812789 0.094791 2.358851 0.360816 0.086500 3.864783 0.566572 0.617870 16.722597 2.535648 11.249103 18.622929 -1.036706 20.866524 -0.307840 -5.395724 -2.420131 -2.531567 -2.379359 -11.547303 -19.910752 -12.537615 -91.112512 -65.759354 126.627776 3.500559 -3.861854 -24.785544 -1.621763 -2.333176 2.387730 0.500089 -17.826751 11.431817 87.786475 -64.831240 -120.669558 7.577193 -1.298449 11.939184 -0.941830 -50.913730 -1.732067 -140.926183 78.689761 -129.410777 -30.115330 -5.897474 0.505268 -0.134768 -10.244073 -0.358894 -17.248776 -52.079610 21.821301 -73.326577 67.964783 -77.711119 30.281856 8.399887 11.616811 0.084825 0.009015 0.022326
-206.452676 49.054934 8.435834 173.019724 -33.450178 -2.880762 0.796495 19.385754 2.818908 0.137271 2.367010 0.376354 0.086892 3.863550 0.564899 0.563784 16.709650 2.509081 11.222044 18.639078 -1.061336 20.890577 -0.270451 -5.417720 -2.380742 -2.550195 -2.332559 -11.464506 -19.941136 -12.499727 -90.984739 -65.834226 126.496983 3.488322 -3.887614 -24.708674 -1.607196 -2.309372 2.407780 0.563953 -17.693694 11.383294 87.862606 -64.799467 -120.723648 7.595167 -1.297507 11.925980 -0.773357 -50.943444 -1.526887 -141.617535 78.830797 -130.111653 -30.149040 -6.022533 0.647522 -0.129631 -10.043309 -0.481917 -17.267857 -52.044305 21.915776 -73.353065 67.982161 -77.720798 30.247173 8.381482 11.590007 0.115315 0.037625 0.010974
-206.466229 49.039015 8.443467 172.955735 -33.461558 -2.896644 0.783403 19.380063 2.812942 0.066445 2.350812 0.347802 0.083656 3.860978 0.560622 0.627500 16.725966 2.521062 11.273441 18.658949 -1.063679 20.832977 -0.245418 -5.438415 -2.341612 -2.568747 -2.290045 -11.387363 -19.945595 -12.495864 -90.916715 -65.866543 126.435732 3.451859 -3.912816 -24.620546 -1.589725 -2.281813 2.424338 0.614881 -17.596352 11.344153 87.799269 -64.735707 -120.632719 7.584690 -1.303726 11.916764 -0.581657 -50.976716 -1.363975 -142.408537 78.996239 -130.895074 -30.185861 -6.114451 0.772411 -0.121149 -9.863546 -0.592037 -17.303805 -52.023215 21.968079 -73.372119 68.014372 -77.717946 30.234545 8.368404 11.563255 0.124541 0.060519 0.004948
